<?xml version="1.0" encoding="UTF-8" standalone="no"?><!DOCTYPE svg PUBLIC "-//W3C//DTD SVG 1.1//EN" "http://www.w3.org/Graphics/SVG/1.1/DTD/svg11.dtd"><svg width="100%" height="100%" viewBox="0 0 50 50" version="1.1" xmlns="http://www.w3.org/2000/svg" xmlns:xlink="http://www.w3.org/1999/xlink" xml:space="preserve" xmlns:serif="http://www.serif.com/" style="fill-rule:evenodd;clip-rule:evenodd;stroke-linejoin:round;stroke-miterlimit:1.41421;"><g><path d="M33.515,29.462c-0.106,-0.332 0.011,-0.694 0.292,-0.9l6.283,-4.609c1,-0.734 1.399,-1.97 1.015,-3.15c-0.383,-1.18 -1.432,-1.946 -2.673,-1.952l-7.792,-0.036c-0.348,-0.001 -0.656,-0.225 -0.765,-0.556l-2.442,-7.399c-0.389,-1.178 -1.442,-1.94 -2.682,-1.94c-1.241,0 -2.294,0.762 -2.682,1.939l-1.101,3.334c-0.175,0.529 0.112,1.098 0.64,1.273c0.529,0.174 1.098,-0.113 1.273,-0.641l1.101,-3.334c0.17,-0.516 0.631,-0.556 0.769,-0.556c0.137,0 0.598,0.04 0.769,0.556l2.442,7.4c0.381,1.154 1.453,1.933 2.669,1.939l7.792,0.036c0.543,0.003 0.724,0.429 0.766,0.56c0.043,0.13 0.147,0.581 -0.291,0.903l-6.283,4.609c-0.98,0.719 -1.389,1.98 -1.019,3.138l2.374,7.424c0.166,0.518 -0.184,0.821 -0.295,0.902c-0.111,0.081 -0.508,0.32 -0.949,0.002l-6.325,-4.552c-0.987,-0.71 -2.313,-0.71 -3.3,0l-6.327,4.553c-0.441,0.317 -0.838,0.078 -0.949,-0.002c-0.111,-0.081 -0.46,-0.384 -0.295,-0.902l2.374,-7.425c0.37,-1.158 -0.04,-2.419 -1.02,-3.138l-6.282,-4.609c-0.438,-0.321 -0.334,-0.773 -0.291,-0.903c0.042,-0.131 0.223,-0.557 0.766,-0.56l7.793,-0.036c0.556,-0.003 1.005,-0.455 1.002,-1.012c-0.002,-0.555 -0.453,-1.002 -1.007,-1.002c-0.001,0 -0.003,0 -0.005,0l-7.792,0.036c-1.241,0.005 -2.29,0.771 -2.673,1.951c-0.384,1.18 0.015,2.417 1.015,3.151l6.283,4.609c0.28,0.206 0.398,0.567 0.292,0.899l-2.374,7.426c-0.378,1.181 0.027,2.416 1.031,3.145c0.503,0.366 1.081,0.549 1.659,0.549c0.574,0 1.149,-0.181 1.65,-0.542l6.327,-4.552c0.283,-0.204 0.663,-0.204 0.946,0l6.325,4.552c1.007,0.724 2.306,0.722 3.31,-0.008c1.004,-0.729 1.408,-1.964 1.03,-3.145l-2.374,-7.425Z" style="fill:#fff;fill-rule:nonzero;"/><path d="M24.75,0c-13.647,0 -24.75,11.103 -24.75,24.75c0,13.647 11.103,24.75 24.75,24.75c0.556,0 1.007,-0.451 1.007,-1.007c0,-0.557 -0.451,-1.008 -1.007,-1.008c-12.536,0.001 -22.735,-10.199 -22.735,-22.735c0,-12.536 10.199,-22.735 22.735,-22.735c12.536,0 22.735,10.199 22.735,22.735c0,7.803 -3.932,14.972 -10.518,19.177c-0.469,0.3 -0.606,0.923 -0.307,1.391c0.3,0.469 0.922,0.607 1.391,0.308c7.169,-4.577 11.449,-12.381 11.449,-20.876c0,-13.647 -11.103,-24.75 -24.75,-24.75Z" style="fill:#fff;fill-rule:nonzero;"/></g></svg>