<?xml version="1.0" encoding="UTF-8" standalone="no"?><!DOCTYPE svg PUBLIC "-//W3C//DTD SVG 1.1//EN" "http://www.w3.org/Graphics/SVG/1.1/DTD/svg11.dtd"><svg width="100%" height="100%" viewBox="0 0 41 36" version="1.1" xmlns="http://www.w3.org/2000/svg" xmlns:xlink="http://www.w3.org/1999/xlink" xml:space="preserve" xmlns:serif="http://www.serif.com/" style="fill-rule:evenodd;clip-rule:evenodd;stroke-linejoin:round;stroke-miterlimit:1.41421;"><g><g><path d="M35.492,5.585l-0.339,-0.212c-0.301,-0.187 -0.696,-0.095 -0.883,0.206c-0.187,0.3 -0.095,0.696 0.205,0.883l0.34,0.211c0.105,0.066 0.222,0.097 0.338,0.097c0.214,0 0.423,-0.107 0.545,-0.302c0.187,-0.301 0.095,-0.696 -0.206,-0.883Z" style="fill:#fff;fill-rule:nonzero;"/><path d="M40.481,7.617c-0.045,-0.177 -0.162,-0.326 -0.323,-0.411l-2.924,-1.541l-0.46,-2.143c-0.033,-0.156 -0.124,-0.294 -0.254,-0.387l-1.158,-0.827l0.468,-1.473c0.073,-0.23 0.011,-0.481 -0.161,-0.65c-0.172,-0.17 -0.424,-0.228 -0.653,-0.152c-0.034,0.011 -0.847,0.285 -1.69,0.812c-0.24,0.15 -0.459,0.307 -0.657,0.469l-0.521,0.02c-2.156,0.081 -4.163,1.096 -5.505,2.786l-4.645,5.846l-5.557,0.944c-3.886,0.661 -6.059,-0.548 -6.977,-1.285c0.401,-0.228 0.853,-0.348 1.313,-0.348c0.864,0 1.677,0.421 2.174,1.127c0.104,0.148 0.266,0.245 0.446,0.267c0.179,0.022 0.36,-0.033 0.497,-0.151l1.433,-1.238c0.81,-0.699 1.275,-1.714 1.275,-2.786c0,-0.936 -0.353,-1.829 -0.994,-2.513c-1.339,-1.431 -3.232,-2.251 -5.194,-2.251c-1.448,0 -2.843,0.435 -4.036,1.259c-2.802,1.934 -3.841,5.6 -2.47,8.716l0.247,0.56l-1.26,1.654c-2.233,2.932 -2.983,6.659 -2.057,10.225l0.509,1.961l-0.841,0.974c-0.362,0.421 -0.54,0.957 -0.501,1.512l0.316,4.423c0.084,1.162 1.062,2.072 2.226,2.072l2.209,0c0.276,0 0.538,-0.133 0.701,-0.354c0.163,-0.222 0.212,-0.512 0.13,-0.775c-0.166,-0.535 -0.493,-0.994 -0.944,-1.327c-0.278,-0.205 -0.587,-0.35 -0.915,-0.431l-0.027,-1.782c-0.011,-0.713 0.339,-1.372 0.935,-1.762l2.781,-1.822c0.746,-0.489 1.383,-1.151 1.842,-1.914l0.667,-1.108c0.488,-0.81 1.345,-1.293 2.291,-1.293c0.52,0 1.027,0.153 1.465,0.441c1.332,0.877 2.94,1.272 4.528,1.113l5.14,-0.517l0.087,5.48c0.007,0.454 0.119,0.91 0.322,1.317l1.817,3.633c0.339,0.679 1.021,1.1 1.78,1.1l2.378,0c0.39,0 0.754,-0.21 0.948,-0.549c0.194,-0.339 0.192,-0.76 -0.005,-1.097c-0.39,-0.664 -1.05,-1.123 -1.793,-1.268l-0.379,-1.434l0.723,-7.788l1.653,-1.792c1.173,-1.27 2.005,-2.829 2.407,-4.51l1.395,-5.834l2.486,-0.056c0.921,-0.021 1.778,-0.489 2.293,-1.252l0.928,-1.376c0.102,-0.15 0.135,-0.337 0.091,-0.514Zm-33.375,-3.571c0.978,-0.676 2.122,-1.033 3.308,-1.033c1.608,0 3.161,0.673 4.259,1.846c0.417,0.446 0.647,1.027 0.647,1.637c0,0.699 -0.303,1.36 -0.831,1.816l-0.945,0.816c-0.731,-0.719 -1.724,-1.133 -2.767,-1.133c-1.58,0 -4.393,1.719 -5.715,3.147c-1.093,-2.544 -0.238,-5.521 2.044,-7.096Zm31.293,4.744c-0.282,0.419 -0.753,0.676 -1.259,0.688l-2.665,0.059c-0.771,0.018 -1.523,-0.18 -2.183,-0.571c-0.444,-0.262 -0.833,-0.624 -1.127,-1.047c-0.203,-0.29 -0.602,-0.362 -0.893,-0.16c-0.29,0.203 -0.362,0.602 -0.16,0.893c0.398,0.572 0.926,1.062 1.526,1.418c0.543,0.321 1.135,0.542 1.748,0.657l-1.345,5.623c-0.351,1.469 -1.078,2.831 -2.102,3.94l-1.8,1.951c-0.096,0.103 -0.155,0.235 -0.168,0.375l-0.753,8.118c-0.007,0.075 -0.001,0.151 0.018,0.223l0.522,1.972c0.074,0.281 0.329,0.477 0.62,0.477c0.367,0 0.716,0.148 0.972,0.4l-1.994,0c-0.27,0 -0.513,-0.15 -0.634,-0.392l-1.816,-3.634c-0.118,-0.236 -0.183,-0.5 -0.187,-0.764l-0.165,-10.352c-0.006,-0.354 -0.301,-0.636 -0.652,-0.63c-0.354,0.005 -0.636,0.297 -0.63,0.651l0.057,3.586l-5.248,0.528c-1.294,0.13 -2.607,-0.193 -3.695,-0.909c-0.648,-0.426 -1.398,-0.652 -2.169,-0.652c-0.315,0 -0.623,0.039 -0.92,0.108c0.927,-2.124 0.745,-4.572 -0.53,-6.555c-0.191,-0.298 -0.588,-0.384 -0.886,-0.193c-0.297,0.192 -0.384,0.588 -0.192,0.886c1.157,1.8 1.212,4.071 0.144,5.925l-1.003,1.74c-0.001,0.001 -0.001,0.002 -0.002,0.003l-0.667,1.108c-0.361,0.599 -0.861,1.119 -1.447,1.503l-2.78,1.821c-0.966,0.633 -1.532,1.7 -1.515,2.855l0.036,2.335c0.005,0.351 0.291,0.632 0.641,0.632c0.285,0 0.557,0.089 0.787,0.258c0.058,0.043 0.113,0.091 0.163,0.142l-1.499,0c-0.495,0 -0.911,-0.388 -0.947,-0.882l-0.316,-4.421c-0.015,-0.215 0.054,-0.423 0.193,-0.584l1.06,-1.23c0.138,-0.159 0.188,-0.376 0.136,-0.579l-0.594,-2.286c-0.826,-3.183 -0.157,-6.51 1.836,-9.126l1.489,-1.955c0.002,-0.003 0.004,-0.007 0.006,-0.01c0.001,-0.001 0.001,-0.002 0.002,-0.003c0.996,-1.371 2.252,-2.129 2.868,-2.443c0.733,0.698 2.624,2.095 6.015,2.095c0.718,0 1.505,-0.063 2.361,-0.208l5.798,-0.986c0.156,-0.026 0.297,-0.109 0.395,-0.233l4.797,-6.038c0.977,-1.229 2.38,-2.026 3.918,-2.245c-0.124,0.269 -0.202,0.546 -0.229,0.828c-0.035,0.353 0.223,0.666 0.575,0.701c0.353,0.034 0.666,-0.224 0.701,-0.576c0.071,-0.736 0.817,-1.361 1.558,-1.795l-0.591,1.86c-0.107,0.338 0.079,0.698 0.417,0.805c0.064,0.02 0.13,0.03 0.194,0.03c0.272,0 0.524,-0.174 0.611,-0.447l0.154,-0.486l0.619,0.442l0.019,0.09c-0.266,0.038 -0.49,0.242 -0.539,0.521c-0.063,0.349 0.169,0.682 0.518,0.744l0.304,0.054l0.168,0.783c0.039,0.186 0.159,0.344 0.327,0.433l2.558,1.348l-0.529,0.783Z" style="fill:#fff;fill-rule:nonzero;"/></g></g></svg>