<?xml version="1.0" encoding="UTF-8" standalone="no"?><!DOCTYPE svg PUBLIC "-//W3C//DTD SVG 1.1//EN" "http://www.w3.org/Graphics/SVG/1.1/DTD/svg11.dtd"><svg width="100%" height="100%" viewBox="0 0 45 45" version="1.1" xmlns="http://www.w3.org/2000/svg" xmlns:xlink="http://www.w3.org/1999/xlink" xml:space="preserve" xmlns:serif="http://www.serif.com/" style="fill-rule:evenodd;clip-rule:evenodd;stroke-linejoin:round;stroke-miterlimit:1.41421;"><g><path d="M43.857,2.021c-0.8,-0.332 -1.484,-0.195 -2.05,0.41l-3.809,3.78c-2.09,-1.973 -4.477,-3.501 -7.163,-4.585c-2.686,-1.084 -5.464,-1.626 -8.335,-1.626c-3.047,0 -5.957,0.596 -8.73,1.787c-2.774,1.192 -5.167,2.793 -7.178,4.805c-2.012,2.011 -3.614,4.404 -4.805,7.177c-1.191,2.774 -1.787,5.683 -1.787,8.731c0,3.046 0.596,5.956 1.787,8.73c1.192,2.773 2.793,5.166 4.805,7.178c2.012,2.011 4.404,3.612 7.178,4.804c2.773,1.191 5.683,1.787 8.73,1.787c3.359,0 6.553,-0.708 9.58,-2.124c3.027,-1.415 5.605,-3.413 7.735,-5.991c0.156,-0.195 0.229,-0.415 0.219,-0.659c-0.009,-0.244 -0.103,-0.444 -0.278,-0.601l-4.013,-4.043c-0.216,-0.175 -0.459,-0.263 -0.733,-0.263c-0.312,0.039 -0.537,0.157 -0.673,0.352c-1.426,1.856 -3.174,3.291 -5.245,4.307c-2.07,1.016 -4.267,1.523 -6.591,1.523c-2.031,0 -3.97,-0.395 -5.815,-1.187c-1.846,-0.79 -3.443,-1.86 -4.79,-3.207c-1.348,-1.348 -2.417,-2.944 -3.208,-4.79c-0.791,-1.846 -1.187,-3.784 -1.187,-5.816c0,-2.031 0.396,-3.97 1.187,-5.815c0.791,-1.846 1.86,-3.442 3.208,-4.79c1.347,-1.347 2.944,-2.417 4.79,-3.208c1.845,-0.791 3.784,-1.186 5.815,-1.186c3.926,0 7.334,1.338 10.225,4.013l-4.044,4.043c-0.606,0.586 -0.742,1.26 -0.411,2.021c0.333,0.781 0.909,1.172 1.73,1.172l13.124,0c0.508,0 0.948,-0.185 1.319,-0.557c0.371,-0.371 0.556,-0.81 0.556,-1.318l0,-13.125c0,-0.82 -0.38,-1.396 -1.143,-1.729Z" style="fill:#fff;fill-rule:nonzero;"/></g></svg>