<?xml version="1.0" encoding="UTF-8" standalone="no"?><!DOCTYPE svg PUBLIC "-//W3C//DTD SVG 1.1//EN" "http://www.w3.org/Graphics/SVG/1.1/DTD/svg11.dtd"><svg width="100%" height="100%" viewBox="0 0 50 50" version="1.1" xmlns="http://www.w3.org/2000/svg" xmlns:xlink="http://www.w3.org/1999/xlink" xml:space="preserve" xmlns:serif="http://www.serif.com/" style="fill-rule:evenodd;clip-rule:evenodd;stroke-linejoin:round;stroke-miterlimit:1.41421;"><g><path d="M46.175,12.38c-3.304,-5.722 -8.639,-9.816 -15.022,-11.526c-6.383,-1.711 -13.05,-0.833 -18.773,2.471c-5.723,3.304 -9.816,8.639 -11.526,15.022c-1.711,6.383 -0.833,13.05 2.471,18.773c3.304,5.722 8.639,9.816 15.022,11.526c2.131,0.572 4.294,0.854 6.443,0.854c4.287,0 8.518,-1.124 12.33,-3.325c5.722,-3.304 9.816,-8.639 11.526,-15.022c1.711,-6.383 0.833,-13.05 -2.471,-18.773Zm-0.017,18.106c-1.533,5.719 -5.2,10.498 -10.327,13.458c-5.126,2.96 -11.099,3.746 -16.817,2.214c-5.719,-1.532 -10.498,-5.199 -13.458,-10.326c-2.96,-5.127 -3.746,-11.1 -2.214,-16.818c1.532,-5.718 5.2,-10.497 10.326,-13.458c3.416,-1.971 7.205,-2.978 11.046,-2.978c1.925,0 3.863,0.253 5.772,0.764c5.718,1.532 10.498,5.2 13.458,10.327c2.96,5.126 3.746,11.099 2.214,16.817Z" style="fill:#fff;fill-rule:nonzero;"/><path d="M36.62,22.415l-15.906,-9.183c-0.844,-0.488 -1.852,-0.487 -2.696,0c-0.844,0.487 -1.348,1.36 -1.348,2.335l0,18.367c0,0.974 0.504,1.847 1.348,2.335c0.422,0.243 0.885,0.365 1.348,0.365c0.463,0 0.926,-0.122 1.348,-0.365l15.906,-9.184c0.844,-0.487 1.348,-1.36 1.348,-2.335c0,-0.974 -0.504,-1.847 -1.348,-2.335Zm-1.288,2.439l-15.907,9.183c-0.019,0.012 -0.06,0.035 -0.119,0c-0.06,-0.034 -0.06,-0.081 -0.06,-0.103l0,-18.367c0,-0.023 0,-0.069 0.06,-0.104c0.023,-0.013 0.044,-0.018 0.061,-0.018c0.027,0 0.047,0.011 0.058,0.018l15.907,9.184c0.019,0.011 0.06,0.034 0.06,0.103c0,0.069 -0.041,0.093 -0.06,0.104Z" style="fill:#fff;fill-rule:nonzero;"/><path d="M39.958,12.998c-3.064,-3.958 -7.669,-6.617 -12.636,-7.296c-0.704,-0.096 -1.354,0.397 -1.451,1.102c-0.096,0.705 0.397,1.355 1.102,1.451c4.304,0.588 8.294,2.892 10.948,6.32c0.254,0.328 0.634,0.499 1.019,0.499c0.276,0 0.553,-0.087 0.788,-0.269c0.562,-0.436 0.665,-1.245 0.23,-1.807Z" style="fill:#fff;fill-rule:nonzero;"/></g></svg>