<?xml version="1.0" encoding="UTF-8" standalone="no"?><!DOCTYPE svg PUBLIC "-//W3C//DTD SVG 1.1//EN" "http://www.w3.org/Graphics/SVG/1.1/DTD/svg11.dtd"><svg width="100%" height="100%" viewBox="0 0 41 32" version="1.1" xmlns="http://www.w3.org/2000/svg" xmlns:xlink="http://www.w3.org/1999/xlink" xml:space="preserve" xmlns:serif="http://www.serif.com/" style="fill-rule:evenodd;clip-rule:evenodd;stroke-linejoin:round;stroke-miterlimit:1.41421;"><g><g><path d="M36.885,10.188c-0.209,-0.492 -0.399,-0.94 -0.763,-1.195c-0.143,-0.311 -0.403,-0.675 -0.804,-1.136c-0.259,-0.3 -0.541,-0.58 -0.813,-0.851c-0.351,-0.35 -0.933,-0.929 -0.988,-1.175c0.016,-0.044 0.029,-0.09 0.038,-0.136c0.196,-1.006 0.582,-2.618 0.828,-3.048c0.097,-0.168 0.322,-0.535 0.068,-0.973c-0.153,-0.262 -0.436,-0.398 -0.739,-0.398l-0.001,0c-0.259,0 -0.421,0.045 -0.62,0.235c-0.013,-0.133 -0.056,-0.197 -0.142,-0.33c-0.165,-0.252 -0.445,-0.33 -0.748,-0.33c-0.001,0 -0.004,0 -0.005,0c-0.298,0 -0.748,-0.075 -2.143,1.872c-0.034,-0.029 -0.068,-0.101 -0.098,-0.128c-0.655,-0.562 -1.751,-1.523 -3.895,-1.523c-0.265,0 -0.543,0.004 -0.826,0.033c-0.406,0.042 -0.718,0.358 -0.759,0.754c-0.528,-0.213 -1.153,-0.509 -1.888,-0.852c-1.395,-0.651 -2.742,-1.007 -4.003,-1.007l0,0c-3.746,0 -5.449,2.861 -5.52,2.981c-0.21,0.359 -0.13,0.829 0.189,1.095c0.158,0.131 0.352,0.203 0.545,0.203c0.198,0 0.396,-0.066 0.555,-0.203c0.012,-0.011 1.492,-1.247 3.373,-1.247c0.386,0 0.766,0.053 1.138,0.158c-1.515,0.06 -2.584,0.482 -3.262,1.285c-0.256,0.304 -0.268,0.745 -0.028,1.062c0.04,0.052 0.085,0.099 0.134,0.14c-0.139,0.012 -0.289,0.019 -0.451,0.019c-0.618,0 -2.172,-0.116 -3.235,-1.197c-0.167,-0.169 -0.387,-0.254 -0.607,-0.254c-0.203,0 -0.406,0.072 -0.569,0.218c-0.338,0.305 -0.377,0.821 -0.088,1.173c0.066,0.08 1.033,1.237 2.508,2.153c-0.882,0.07 -2.932,0.393 -3.737,1.88c-0.149,0.277 -0.131,0.605 0.029,0.859c-0.211,-0.057 -0.429,-0.122 -0.654,-0.195c-1.183,-0.385 -2.405,-0.58 -3.634,-0.58c-2.82,0 -4.743,1.024 -4.823,1.068c-0.38,0.205 -0.545,0.662 -0.385,1.063c0.131,0.33 0.448,0.536 0.789,0.536c0.073,0 0.147,-0.01 0.221,-0.03c0.011,-0.003 1.136,-0.299 2.302,-0.299c1.986,0 2.14,0.799 2.19,1.062c0.03,0.155 0.064,0.435 -0.045,0.566c-0.107,0.13 -0.452,0.269 -1.098,0.269c-0.814,0 -1.636,-0.215 -1.644,-0.218c-0.072,-0.019 -0.146,-0.028 -0.218,-0.028c-0.303,0 -0.591,0.162 -0.744,0.436c-0.151,0.272 -0.14,0.597 0.014,0.853c-0.299,-0.002 -0.604,-0.017 -0.909,-0.042c-0.024,-0.001 -0.047,-0.003 -0.07,-0.003c-0.408,0 -0.764,0.293 -0.837,0.702c-0.077,0.432 0.187,0.851 0.61,0.968c4.784,1.33 17.599,5.87 19.412,10.846c0.39,1.072 0.231,2.101 -0.486,3.147c-0.234,0.343 -0.188,0.803 0.109,1.092c0.164,0.158 0.378,0.24 0.593,0.24c0.175,0 0.351,-0.054 0.501,-0.164c0.12,-0.088 2.89,-2.192 2.379,-8.758c0.501,-0.928 2.472,-4.56 3.838,-6.777c0.354,-0.574 0.543,-0.636 0.545,-0.636c0.1,0.01 0.427,0.254 0.622,0.4c0.528,0.393 1.25,0.933 2.226,0.933c0.107,0 0.217,-0.007 0.325,-0.02c0.04,-0.006 0.08,-0.008 0.121,-0.008c0.697,0 1.78,0.603 2.633,1.466c0.593,0.599 0.814,1.062 0.845,1.238c-0.204,0.367 -0.111,0.836 0.233,1.093c0.204,0.153 1.27,0.914 2.275,0.914c0.526,0 0.973,-0.205 1.28,-0.576c0.599,-0.156 1.328,-0.548 1.605,-1.33c0.224,-0.127 0.436,-0.32 0.591,-0.597c0.536,-0.964 0.141,-2.456 -1.245,-4.696c-1.314,-2.124 -1.831,-3.344 -2.14,-4.072Zm2.058,8.718c-0.036,1.103 -1.387,1.209 -1.387,1.209c-0.157,0.367 -0.44,0.496 -0.762,0.496c-0.771,0 -1.763,-0.744 -1.763,-0.744c0.719,-0.994 -2.224,-3.968 -4.222,-3.968c-0.076,0 -0.151,0.005 -0.224,0.014c-0.076,0.009 -0.15,0.013 -0.222,0.013c-1.263,0 -2.012,-1.331 -2.861,-1.331c-0.38,0 -0.781,0.267 -1.257,1.039c-1.6,2.596 -3.983,7.042 -3.983,7.042c0.569,6.367 -2.011,8.252 -2.011,8.252c5.706,-8.323 -19.4,-15.294 -19.4,-15.294c0.389,0.031 0.758,0.045 1.106,0.045c2.385,0 3.766,-0.65 3.766,-0.65c-0.361,0.118 -0.702,0.166 -1.017,0.166c-1.296,0 -2.148,-0.806 -2.148,-0.806c0,0 0.919,0.246 1.863,0.246c1.116,0 2.267,-0.344 1.978,-1.847c-0.27,-1.405 -1.69,-1.751 -3.025,-1.751c-1.301,0 -2.523,0.329 -2.523,0.329c0,0 1.781,-0.965 4.419,-0.965c1.014,0 2.155,0.143 3.371,0.538c1.2,0.391 2.132,0.545 2.829,0.545c1.844,0 2.041,-1.083 1.19,-1.754c-0.355,-0.28 -0.713,-0.378 -1.04,-0.378c-0.755,0 -1.343,0.52 -1.343,0.52c0,0 0.787,-1.455 3.399,-1.455c0.217,0 0.447,0.01 0.691,0.032c0.269,0.024 0.527,0.035 0.773,0.035c2.641,0 3.922,-1.28 3.922,-1.28c-0.768,0.462 -1.535,0.647 -2.271,0.647c-2.941,0 -5.376,-2.959 -5.376,-2.959c1.039,1.057 2.552,1.452 3.842,1.452c1.403,0 2.543,-0.468 2.524,-1.061c-0.016,-0.52 -0.337,-0.661 -0.681,-0.661c-0.408,0 -0.848,0.199 -0.848,0.199c0.685,-0.812 1.891,-0.99 2.998,-0.99c0.868,0 1.675,0.109 2.126,0.109c0.587,0 0.567,-0.185 -0.714,-1.039c-1.019,-0.68 -2.024,-0.921 -2.936,-0.921c-2.24,0 -3.928,1.454 -3.928,1.454c0,0 1.485,-2.537 4.786,-2.537c1.033,0 2.244,0.248 3.643,0.901c2.71,1.265 4.154,1.658 4.88,1.658c0.847,0 0.72,-0.533 0.491,-0.84c-0.428,-0.569 -2.277,-0.675 -2.277,-0.675c0.262,-0.028 0.508,-0.04 0.739,-0.04c2.728,0.001 3.415,1.739 4.073,1.739c0.166,0 0.329,-0.11 0.523,-0.383c0.731,-1.034 1.373,-1.728 1.545,-1.728c0.071,0 0.063,0.117 -0.051,0.376c-0.391,0.889 -0.249,2.063 -0.249,2.063c0.487,-0.244 1.731,-1.897 1.811,-1.897c0.013,0 -0.007,0.047 -0.068,0.154c-0.427,0.747 -0.924,3.307 -0.924,3.307c-0.356,0.854 1.031,1.814 1.956,2.881c0.925,1.067 0.712,1.209 0.712,1.209c0.711,0.036 0.32,0.89 2.916,5.087c2.595,4.197 0.639,4.197 0.639,4.197Zm-28.193,-8.328c0.031,-0.021 0.06,-0.043 0.089,-0.068c0.096,-0.082 0.438,-0.307 0.78,-0.307c0.182,0 0.345,0.062 0.514,0.195c0.054,0.042 0.09,0.08 0.115,0.111c-0.106,0.051 -0.337,0.124 -0.779,0.124c-0.217,0 -0.457,-0.018 -0.719,-0.055Z" style="fill:#fff;fill-rule:nonzero;"/><path d="M32.403,9.215c-2.23,-0.496 -1.674,-1.191 -1.588,-1.283c-0.104,0.11 -1.16,1.285 1.339,1.691c2.623,0.425 0.142,1.506 3.031,1.861c0,-0.001 -0.39,-1.737 -2.782,-2.269Z" style="fill:#fff;fill-rule:nonzero;"/></g></g></svg>