<?xml version="1.0" encoding="UTF-8" standalone="no"?><!DOCTYPE svg PUBLIC "-//W3C//DTD SVG 1.1//EN" "http://www.w3.org/Graphics/SVG/1.1/DTD/svg11.dtd"><svg width="100%" height="100%" viewBox="0 0 50 50" version="1.1" xmlns="http://www.w3.org/2000/svg" xmlns:xlink="http://www.w3.org/1999/xlink" xml:space="preserve" xmlns:serif="http://www.serif.com/" style="fill-rule:evenodd;clip-rule:evenodd;stroke-linejoin:round;stroke-miterlimit:1.41421;"><g><path d="M49.5,24.75c0,-13.647 -11.103,-24.75 -24.75,-24.75c-13.647,0 -24.75,11.103 -24.75,24.75c0,5.067 1.533,9.782 4.156,13.71l-0.001,0.017l0.17,0.25c0.149,0.217 0.309,0.423 0.464,0.634c0.063,0.086 0.125,0.172 0.189,0.258c0.196,0.261 0.399,0.516 0.604,0.768c0.059,0.073 0.12,0.144 0.18,0.216c0.954,1.143 2.002,2.189 3.129,3.13c0.069,0.057 0.136,0.115 0.205,0.172c0.246,0.2 0.495,0.397 0.748,0.587c0.102,0.078 0.206,0.153 0.309,0.229c0.241,0.176 0.482,0.351 0.73,0.519c0.132,0.09 0.269,0.174 0.402,0.261c0.343,0.223 0.69,0.438 1.043,0.643c0.246,0.143 0.493,0.286 0.744,0.421c0.152,0.082 0.307,0.158 0.46,0.236c0.269,0.137 0.538,0.27 0.811,0.397c0.137,0.064 0.275,0.126 0.414,0.188c0.316,0.14 0.636,0.273 0.958,0.4c0.1,0.039 0.199,0.08 0.3,0.118c0.885,0.335 1.794,0.622 2.724,0.855c0.038,0.01 0.077,0.017 0.115,0.027c0.411,0.1 0.826,0.19 1.245,0.27c0.111,0.022 0.222,0.041 0.334,0.06c0.35,0.062 0.701,0.117 1.056,0.164c0.135,0.018 0.27,0.035 0.405,0.052c0.346,0.039 0.694,0.071 1.043,0.096c0.131,0.01 0.26,0.022 0.391,0.03c0.471,0.025 0.944,0.042 1.422,0.042c0.478,0 0.951,-0.017 1.422,-0.044c0.131,-0.007 0.26,-0.02 0.391,-0.029c0.349,-0.026 0.697,-0.057 1.043,-0.097c0.135,-0.016 0.271,-0.034 0.405,-0.052c0.355,-0.047 0.706,-0.101 1.056,-0.163c0.112,-0.02 0.223,-0.039 0.334,-0.061c0.419,-0.08 0.834,-0.169 1.245,-0.27c0.038,-0.009 0.077,-0.017 0.115,-0.027c0.93,-0.232 1.839,-0.519 2.724,-0.854c0.101,-0.038 0.201,-0.079 0.301,-0.119c0.323,-0.127 0.642,-0.26 0.958,-0.399c0.139,-0.061 0.277,-0.124 0.414,-0.188c0.273,-0.127 0.543,-0.259 0.81,-0.396c0.154,-0.079 0.309,-0.156 0.461,-0.236c0.251,-0.136 0.497,-0.278 0.744,-0.422c0.353,-0.205 0.7,-0.42 1.043,-0.643c0.134,-0.087 0.27,-0.171 0.402,-0.261c0.247,-0.168 0.488,-0.343 0.73,-0.519c0.103,-0.076 0.207,-0.151 0.309,-0.229c0.252,-0.19 0.502,-0.387 0.747,-0.587c0.07,-0.057 0.137,-0.115 0.206,-0.172c1.128,-0.942 2.175,-1.987 3.13,-3.13c0.06,-0.072 0.119,-0.143 0.178,-0.216c0.205,-0.251 0.408,-0.507 0.604,-0.768c0.064,-0.085 0.125,-0.171 0.189,-0.258c0.154,-0.211 0.315,-0.417 0.464,-0.634l0.17,-0.25l-0.001,-0.017c2.623,-3.927 4.156,-8.642 4.156,-13.709Zm-1.65,0c0,4.102 -1.08,7.955 -2.963,11.298c-1.412,-4.682 -5.734,-7.998 -10.805,-7.998l-0.74,0l-4.165,0c-0.167,0 -0.302,-0.135 -0.302,-0.301l0,-0.532c0,-0.151 0.123,-0.25 0.228,-0.291c5.312,-1.997 8.625,-10.282 7.93,-16.077c-0.362,-3.018 -1.857,-5.715 -4.028,-7.669c8.672,3.331 14.845,11.741 14.845,21.57Zm-4.506,13.687c-0.067,0.09 -0.134,0.179 -0.201,0.268c-0.184,0.242 -0.37,0.482 -0.563,0.716c-0.02,0.024 -0.041,0.047 -0.06,0.071c-0.667,0.802 -1.387,1.558 -2.154,2.263c-0.046,0.042 -0.091,0.085 -0.137,0.126c-0.229,0.207 -0.463,0.409 -0.7,0.607c-0.074,0.061 -0.149,0.122 -0.224,0.183c-0.231,0.188 -0.462,0.372 -0.699,0.55c-0.08,0.06 -0.163,0.117 -0.243,0.176c-0.137,0.1 -0.274,0.197 -0.412,0.293l0,-4.09l-1.65,0l0,5.142c-0.032,0.019 -0.065,0.037 -0.098,0.056c-0.21,0.121 -0.419,0.24 -0.633,0.353c-0.146,0.078 -0.295,0.153 -0.443,0.228c-0.249,0.126 -0.5,0.247 -0.753,0.363c-0.124,0.057 -0.247,0.114 -0.372,0.168c-0.317,0.139 -0.638,0.271 -0.962,0.396c-0.066,0.025 -0.132,0.053 -0.198,0.078c-0.825,0.309 -1.669,0.571 -2.527,0.784c-0.062,0.015 -0.125,0.028 -0.187,0.043c-0.355,0.085 -0.714,0.162 -1.075,0.23c-0.107,0.02 -0.214,0.039 -0.322,0.058c-0.32,0.056 -0.642,0.104 -0.966,0.146c-0.124,0.017 -0.249,0.034 -0.374,0.048c-0.32,0.037 -0.642,0.065 -0.965,0.089c-0.12,0.008 -0.239,0.02 -0.359,0.027c-0.438,0.026 -0.876,0.041 -1.317,0.041c-0.441,0 -0.879,-0.015 -1.316,-0.04c-0.12,-0.006 -0.239,-0.019 -0.359,-0.027c-0.322,-0.024 -0.645,-0.051 -0.965,-0.088c-0.125,-0.014 -0.25,-0.031 -0.375,-0.048c-0.323,-0.043 -0.645,-0.092 -0.965,-0.147c-0.107,-0.019 -0.215,-0.037 -0.322,-0.058c-0.361,-0.068 -0.72,-0.145 -1.075,-0.231c-0.062,-0.014 -0.124,-0.028 -0.186,-0.042c-0.859,-0.214 -1.703,-0.476 -2.528,-0.784c-0.067,-0.025 -0.133,-0.053 -0.199,-0.079c-0.323,-0.124 -0.643,-0.256 -0.961,-0.395c-0.124,-0.054 -0.248,-0.111 -0.372,-0.168c-0.253,-0.116 -0.504,-0.238 -0.753,-0.363c-0.149,-0.075 -0.297,-0.149 -0.443,-0.228c-0.214,-0.113 -0.424,-0.233 -0.634,-0.353c-0.032,-0.019 -0.065,-0.037 -0.097,-0.056l0,-5.143l-1.65,0l0,4.09c-0.139,-0.096 -0.276,-0.194 -0.412,-0.293c-0.081,-0.059 -0.163,-0.116 -0.243,-0.176c-0.237,-0.178 -0.469,-0.362 -0.698,-0.549c-0.076,-0.061 -0.151,-0.123 -0.226,-0.184c-0.237,-0.198 -0.47,-0.399 -0.699,-0.606c-0.046,-0.042 -0.092,-0.086 -0.138,-0.128c-0.768,-0.705 -1.488,-1.46 -2.154,-2.262c-0.019,-0.024 -0.04,-0.047 -0.06,-0.071c-0.193,-0.234 -0.379,-0.474 -0.563,-0.716c-0.067,-0.089 -0.135,-0.178 -0.201,-0.268c-0.099,-0.135 -0.195,-0.272 -0.29,-0.409c0.646,-4.77 4.697,-8.328 9.552,-8.328l2.39,0l6.942,6.942l6.942,-6.942l2.389,0c4.855,0 8.907,3.558 9.553,8.328c-0.095,0.137 -0.19,0.274 -0.29,0.409Zm-22.314,-13.034c-3.945,-1.46 -7.005,-8.202 -7.005,-13.028c0,-0.106 0.012,-0.209 0.015,-0.313l0.604,-0.745c1.362,-1.621 3.687,-2.084 5.785,-1.155c0.844,0.374 1.742,0.563 2.671,0.563c2.451,0 4.653,-1.332 5.798,-3.452c2.625,0.862 4.968,2.488 6.553,4.536c0.242,5.033 -2.717,11.99 -6.928,13.573c-0.789,0.297 -1.298,1.017 -1.298,1.835l0,0.532c0,1.075 0.876,1.951 1.951,1.951l0.182,0l-4.608,4.608l-4.608,-4.608l0.182,0c1.075,0 1.951,-0.876 1.951,-1.951l0,-0.524c0,-0.813 -0.499,-1.546 -1.245,-1.822Zm3.753,-23.751c0.01,0 0.018,0 0.027,0c0.404,0.002 0.8,0.024 1.18,0.068c4.091,0.456 7.53,3.304 8.87,7.086c-1.744,-1.52 -3.884,-2.689 -6.185,-3.322l-0.709,-0.195l-0.275,0.682c-0.76,1.885 -2.561,3.104 -4.591,3.104c-0.697,0 -1.371,-0.142 -2.002,-0.422c-2.282,-1.009 -4.774,-0.736 -6.614,0.603c0.505,-1.672 1.419,-3.203 2.69,-4.472c2.025,-2.02 4.713,-3.132 7.609,-3.132Zm-8.298,1.533c-0.159,0.143 -0.323,0.278 -0.477,0.431c-2.343,2.339 -3.633,5.448 -3.633,8.759c0,5.469 3.457,12.864 8.083,14.574c0.098,0.038 0.167,0.151 0.167,0.276l0,0.524c0,0.166 -0.135,0.301 -0.301,0.301l-4.166,0l-0.739,0c-5.072,0 -9.394,3.317 -10.806,7.998c-1.883,-3.343 -2.963,-7.196 -2.963,-11.298c0,-9.826 6.169,-18.232 14.835,-21.565Z" style="fill:#fff;fill-rule:nonzero;"/></g></svg>