<?xml version="1.0" encoding="UTF-8" standalone="no"?><!DOCTYPE svg PUBLIC "-//W3C//DTD SVG 1.1//EN" "http://www.w3.org/Graphics/SVG/1.1/DTD/svg11.dtd"><svg width="100%" height="100%" viewBox="0 0 66 59" version="1.1" xmlns="http://www.w3.org/2000/svg" xmlns:xlink="http://www.w3.org/1999/xlink" xml:space="preserve" xmlns:serif="http://www.serif.com/" style="fill-rule:evenodd;clip-rule:evenodd;stroke-linejoin:round;stroke-miterlimit:1.41421;"><g><path d="M65.396,11.25c0,-2.984 -1.185,-5.845 -3.295,-7.955c-2.11,-2.11 -4.972,-3.295 -7.955,-3.295c-12,0 -30.896,0 -42.896,0c-2.984,0 -5.845,1.185 -7.955,3.295c-2.11,2.11 -3.295,4.971 -3.295,7.955c0,10.377 0,25.701 0,36.078c0,2.984 1.185,5.845 3.295,7.955c2.11,2.11 4.971,3.295 7.955,3.295c12,0 30.896,0 42.896,0c2.983,0 5.845,-1.185 7.955,-3.295c2.11,-2.11 3.295,-4.971 3.295,-7.955c0,-10.377 0,-25.701 0,-36.078Z" style="fill:#80ad53;"/><g><path id="Star" d="M55.792,23.38c-0.379,-1.101 -1.46,-1.842 -2.682,-1.842l-13.547,0l-4.185,-12.194c-0.379,-1.095 -1.458,-1.843 -2.68,-1.843c-1.222,0 -2.301,0.748 -2.679,1.843l-4.187,12.193l-13.546,0c-1.222,0 -2.303,0.742 -2.682,1.842c-0.376,1.101 0.037,2.301 1.025,2.98l10.96,7.537l-4.187,12.192c-0.375,1.1 0.037,2.3 1.027,2.98c0.985,0.678 2.324,0.678 3.31,0l10.959,-7.536l10.959,7.536c0.494,0.339 1.076,0.509 1.656,0.509c0.582,0 1.164,-0.17 1.657,-0.509c0.988,-0.678 1.401,-1.88 1.025,-2.98l-4.187,-12.193l10.959,-7.536c0.988,-0.678 1.4,-1.879 1.025,-2.979Z" style="fill:#fff;fill-rule:nonzero;"/></g></g></svg>