<?xml version="1.0" encoding="UTF-8" standalone="no"?><!DOCTYPE svg PUBLIC "-//W3C//DTD SVG 1.1//EN" "http://www.w3.org/Graphics/SVG/1.1/DTD/svg11.dtd"><svg width="100%" height="100%" viewBox="0 0 41 41" version="1.1" xmlns="http://www.w3.org/2000/svg" xmlns:xlink="http://www.w3.org/1999/xlink" xml:space="preserve" xmlns:serif="http://www.serif.com/" style="fill-rule:evenodd;clip-rule:evenodd;stroke-linejoin:round;stroke-miterlimit:1.41421;"><g><g><path d="M35.544,21.774c-0.348,-0.069 -0.697,0.157 -0.766,0.514c-0.462,2.282 -1.333,4.425 -2.848,6.942c-0.183,0.313 -0.087,0.714 0.226,0.897c0.113,0.069 0.227,0.096 0.34,0.096c0.226,0 0.435,-0.114 0.557,-0.323c1.594,-2.647 2.517,-4.921 3.005,-7.359c0.07,-0.349 -0.157,-0.697 -0.514,-0.767Z" style="fill:#fff;fill-rule:nonzero;"/><path d="M24.132,19.032l0.924,0.923l2.167,-2.167l-0.923,-0.924l-2.168,2.168Z" style="fill:#fff;"/><path d="M7.441,28.468l0.924,0.924l2.168,-2.168l-0.924,-0.924l-2.168,2.168Z" style="fill:#fff;"/><path d="M13.77,23.955l-0.924,-0.924l-2.168,2.168l0.924,0.924l2.168,-2.168Z" style="fill:#fff;"/><path d="M20.289,17.467l-0.924,-0.924l-2.168,2.168l0.924,0.924l2.168,-2.168Z" style="fill:#fff;"/><path d="M17.036,20.714l-0.924,-0.924l-2.168,2.168l0.924,0.924l2.168,-2.168Z" style="fill:#fff;"/><path d="M23.525,14.202l-0.924,-0.924l-2.168,2.168l0.924,0.923l2.168,-2.167Z" style="fill:#fff;"/><path d="M26.79,10.957l-0.924,-0.924l-2.168,2.168l0.924,0.924l2.168,-2.168Z" style="fill:#fff;"/><path d="M30.032,7.698l-0.924,-0.924l-2.168,2.168l0.924,0.924l2.168,-2.168Z" style="fill:#fff;"/><path d="M11.123,32.045l0.924,0.924l2.168,-2.168l-0.924,-0.924l-2.168,2.168Z" style="fill:#fff;"/><path d="M14.377,28.787l0.924,0.924l2.168,-2.168l-0.924,-0.924l-2.168,2.168Z" style="fill:#fff;"/><path d="M20.879,22.29l0.924,0.923l2.167,-2.167l-0.923,-0.924l-2.168,2.168Z" style="fill:#fff;"/><path d="M17.631,25.542l0.923,0.923l2.168,-2.168l-0.924,-0.923l-2.167,2.168Z" style="fill:#fff;"/><path d="M27.386,15.786l0.924,0.924l2.168,-2.168l-0.924,-0.924l-2.168,2.168Z" style="fill:#fff;"/><path d="M30.633,12.534l0.924,0.924l2.168,-2.168l-0.924,-0.924l-2.168,2.168Z" style="fill:#fff;"/><path d="M34.551,5.905c-3.823,-3.806 -8.901,-5.905 -14.301,-5.905c-5.444,0 -10.53,2.099 -14.345,5.905c-3.806,3.806 -5.905,8.901 -5.905,14.345c0,5.4 2.099,10.478 5.905,14.301c3.824,3.833 8.919,5.949 14.345,5.949c5.391,0 10.469,-2.116 14.301,-5.949c3.833,-3.832 5.949,-8.918 5.949,-14.301c0,-5.426 -2.116,-10.521 -5.949,-14.345Zm-33.245,14.345c0,-10.443 8.501,-18.944 18.944,-18.944c3.092,0 6.01,0.741 8.588,2.065l-25.467,25.467c-1.316,-2.578 -2.065,-5.496 -2.065,-8.588Zm7.996,15.451l1.655,-1.655l-0.923,-0.923l-1.777,1.777c-0.993,-0.81 -1.899,-1.725 -2.709,-2.709l1.716,-1.716l-0.923,-0.923l-1.594,1.594c-0.253,-0.357 -0.497,-0.732 -0.723,-1.115l25.998,-25.998c0.383,0.226 0.749,0.47 1.115,0.722l-0.941,0.941l0.924,0.923l1.071,-1.071c0.984,0.801 1.881,1.69 2.683,2.665l-1.011,1.072l0.95,0.897l0.862,-0.915c0.252,0.348 0.488,0.706 0.714,1.071l-26.051,26.051c-0.357,-0.218 -0.705,-0.444 -1.036,-0.688Zm10.948,3.493c-3.144,0 -6.114,-0.776 -8.727,-2.134l25.537,-25.537c1.367,2.613 2.134,5.583 2.134,8.727c0,10.443 -8.501,18.944 -18.944,18.944Z" style="fill:#fff;fill-rule:nonzero;"/><circle cx="31.094" cy="31.703" r="0.653" style="fill:#fff;"/></g></g></svg>