<?xml version="1.0" encoding="UTF-8" standalone="no"?><!DOCTYPE svg PUBLIC "-//W3C//DTD SVG 1.1//EN" "http://www.w3.org/Graphics/SVG/1.1/DTD/svg11.dtd"><svg width="100%" height="100%" viewBox="0 0 41 41" version="1.1" xmlns="http://www.w3.org/2000/svg" xmlns:xlink="http://www.w3.org/1999/xlink" xml:space="preserve" xmlns:serif="http://www.serif.com/" style="fill-rule:evenodd;clip-rule:evenodd;stroke-linejoin:round;stroke-miterlimit:1.41421;"><g><path d="M36.575,8.273c-3.199,-4.36 -7.905,-7.214 -13.251,-8.034c-5.346,-0.821 -10.691,0.489 -15.051,3.689c-4.36,3.2 -7.214,7.906 -8.034,13.252c-0.713,4.641 0.182,9.282 2.524,13.278c0.002,0.003 0.003,0.006 0.005,0.009c0.354,0.603 0.74,1.192 1.16,1.764c2.851,3.885 7.002,6.631 11.687,7.731c0.214,0.05 0.428,0.096 0.643,0.139c0.044,0.012 0.09,0.021 0.136,0.026c1.279,0.247 2.573,0.372 3.863,0.372c1.299,0 2.594,-0.127 3.866,-0.373c0.038,-0.005 0.075,-0.012 0.112,-0.022c1.769,-0.353 3.493,-0.942 5.119,-1.763c0.39,-0.196 0.547,-0.672 0.35,-1.062c-0.197,-0.39 -0.673,-0.547 -1.063,-0.35c-0.979,0.495 -1.983,0.895 -3.001,1.205l3.279,-5.686l6.421,-1.206c-0.558,0.77 -1.181,1.503 -1.868,2.191c-0.309,0.309 -0.309,0.81 0,1.118c0.309,0.309 0.81,0.309 1.119,0c1.21,-1.21 2.251,-2.565 3.109,-4.024c0.007,-0.01 0.013,-0.021 0.019,-0.032c1.399,-2.388 2.303,-5.058 2.637,-7.843c0.002,-0.019 0.005,-0.039 0.006,-0.058c0.028,-0.241 0.053,-0.483 0.073,-0.726c0.39,-4.844 -0.981,-9.672 -3.86,-13.595Zm-13.491,-6.471c4.098,0.629 7.787,2.555 10.61,5.497l-0.965,8.297l-6.201,1.392l-5.466,-3.971l0,-5.941l1.218,-0.873c0.355,-0.254 0.436,-0.749 0.182,-1.104c-0.255,-0.355 -0.749,-0.436 -1.104,-0.182l-1.139,0.817l-5.449,-3.334c2.657,-0.818 5.485,-1.032 8.314,-0.598Zm-8.004,16.338l2.576,-1.871l2.576,-1.872l5.152,3.743l-1.967,6.057l-6.369,0l0,0l-1.968,-6.057Zm-5.871,-12.937c1.155,-0.847 2.386,-1.551 3.67,-2.105l6.562,4.015l0,5.904l-5.466,3.971l-6.225,-1.397l-1.271,-7.945c0.819,-0.892 1.731,-1.71 2.73,-2.443Zm-7.407,12.217c0.459,-2.989 1.608,-5.76 3.337,-8.136l1.07,6.689l-4.624,4.664c-0.019,-1.066 0.052,-2.142 0.217,-3.217Zm-0.059,5.305l5.564,-5.613l6.231,1.399l2.067,6.362l-3.891,5.988l-7.751,-1.488c-1.164,-2.071 -1.912,-4.321 -2.22,-6.648Zm3.46,8.57c-0.021,-0.028 -0.04,-0.057 -0.061,-0.085l6.441,1.236l3.29,5.702c-3.763,-1.134 -7.184,-3.465 -9.67,-6.853Zm18.314,7.352c-2.18,0.392 -4.388,0.386 -6.526,0.007l-3.976,-6.892l3.888,-5.983l6.697,0l3.889,5.983l-3.972,6.885Zm12.991,-9.234l-7.718,1.449l-3.892,-5.989l2.068,-6.362l6.226,-1.398l5.519,5.668c-0.313,2.31 -1.05,4.566 -2.203,6.632Zm2.368,-8.729l-4.597,-4.721l0.817,-7.025c0.068,0.09 0.137,0.179 0.204,0.271c2.498,3.404 3.672,7.46 3.576,11.475Z" style="fill:#fff;fill-rule:nonzero;"/><path d="M24.589,3.416c-0.147,-0.147 -0.351,-0.231 -0.559,-0.231c-0.208,0 -0.412,0.084 -0.559,0.231c-0.147,0.148 -0.232,0.352 -0.232,0.56c0,0.208 0.085,0.412 0.232,0.559c0.147,0.148 0.351,0.231 0.559,0.231c0.208,0 0.412,-0.083 0.559,-0.231c0.147,-0.147 0.232,-0.351 0.232,-0.559c0,-0.208 -0.085,-0.413 -0.232,-0.56Z" style="fill:#fff;fill-rule:nonzero;"/><path d="M32.229,35.409c-0.147,-0.147 -0.351,-0.232 -0.559,-0.232c-0.208,0 -0.412,0.085 -0.559,0.232c-0.147,0.147 -0.232,0.351 -0.232,0.559c0,0.208 0.085,0.412 0.232,0.559c0.147,0.148 0.351,0.232 0.559,0.232c0.208,0 0.412,-0.084 0.559,-0.232c0.147,-0.147 0.232,-0.351 0.232,-0.559c0,-0.208 -0.085,-0.412 -0.232,-0.559Z" style="fill:#fff;fill-rule:nonzero;"/></g></svg>