<?xml version="1.0" encoding="UTF-8" standalone="no"?><!DOCTYPE svg PUBLIC "-//W3C//DTD SVG 1.1//EN" "http://www.w3.org/Graphics/SVG/1.1/DTD/svg11.dtd"><svg width="100%" height="100%" viewBox="0 0 41 41" version="1.1" xmlns="http://www.w3.org/2000/svg" xmlns:xlink="http://www.w3.org/1999/xlink" xml:space="preserve" xmlns:serif="http://www.serif.com/" style="fill-rule:evenodd;clip-rule:evenodd;stroke-linejoin:round;stroke-miterlimit:1.41421;"><g><path d="M40.135,35.718l-6.941,-6.94c-0.236,-0.236 -0.55,-0.366 -0.884,-0.366c-0.063,0 -0.126,0.006 -0.188,0.015l-2.501,-2.501c-0.045,-0.406 -0.162,-1.367 -0.386,-2.696c4.091,-0.764 7.332,-4.104 7.848,-8.361c0.039,-0.325 -0.192,-0.621 -0.518,-0.66c-0.325,-0.04 -0.62,0.192 -0.66,0.517c-0.217,1.795 -0.987,3.404 -2.126,4.666c-1.417,-1.566 -2.191,-3.569 -2.191,-5.702c0,-2.133 0.774,-4.136 2.191,-5.702c1.139,1.262 1.909,2.871 2.126,4.666c0.04,0.325 0.335,0.557 0.66,0.518c0.326,-0.04 0.557,-0.335 0.518,-0.66c-0.589,-4.861 -4.73,-8.526 -9.633,-8.526c-1.882,0 -3.639,0.539 -5.128,1.469c-0.165,-0.19 -0.334,-0.378 -0.506,-0.56c-0.002,-0.002 -0.004,-0.004 -0.005,-0.005c-0.092,-0.097 -0.185,-0.194 -0.28,-0.29l-0.032,-0.032c-0.005,-0.005 -0.009,-0.01 -0.014,-0.014c-2.462,-2.456 -5.594,-4.035 -8.822,-4.447c-3.244,-0.413 -6.315,0.378 -8.648,2.228c-0.256,0.204 -0.299,0.577 -0.096,0.834c0.204,0.257 0.577,0.3 0.834,0.096c4.376,-3.472 11.214,-2.551 15.906,2.141c0.002,0.002 0.004,0.004 0.006,0.006l0.024,0.025c0.088,0.088 0.175,0.178 0.259,0.267c0.001,0.001 0.003,0.003 0.004,0.004c0.136,0.143 0.269,0.29 0.4,0.439c-0.204,0.165 -0.4,0.338 -0.59,0.518c-0.023,0.017 -0.045,0.036 -0.066,0.058c-0.013,0.013 -0.025,0.027 -0.036,0.042c-0.1,0.097 -0.197,0.196 -0.292,0.298c-0.211,-0.242 -0.43,-0.479 -0.658,-0.706c0,-0.001 0,-0.001 -0.001,-0.002c0,0 0,0 0,0c-1.153,-1.153 -2.449,-2.051 -3.801,-2.687c-0.025,-0.013 -0.05,-0.026 -0.077,-0.036c-2.104,-0.972 -4.339,-1.311 -6.377,-0.983c-0.037,0.002 -0.073,0.008 -0.109,0.018c-1.676,0.29 -3.214,1.033 -4.429,2.249c-0.001,0 -0.002,0.001 -0.003,0.002c0,0 0,0 0,0c0,0.001 0,0.001 -0.001,0.001c-1.206,1.208 -1.947,2.733 -2.24,4.395c-0.02,0.061 -0.031,0.124 -0.031,0.186c-0.315,2.026 0.026,4.243 0.991,6.331c0.01,0.026 0.022,0.052 0.037,0.078c0.636,1.351 1.534,2.648 2.686,3.801c2.149,2.148 4.86,3.489 7.634,3.775c0.369,0.038 0.734,0.057 1.093,0.057c0.531,0 1.05,-0.041 1.552,-0.123c0.02,-0.002 0.04,-0.006 0.06,-0.01c1.722,-0.292 3.253,-1.059 4.452,-2.257c0,0 0,0 0,0c0,0 0.001,0 0.001,0c0,-0.001 0.001,-0.002 0.002,-0.003c0.015,-0.015 0.03,-0.031 0.045,-0.047c0.345,0.292 0.71,0.56 1.093,0.802c-0.062,0.066 -0.125,0.131 -0.188,0.195c-1.083,1.083 -2.395,1.864 -3.897,2.323c-0.254,0.078 -0.425,0.313 -0.42,0.577c0.004,0.265 0.183,0.495 0.438,0.563l0.095,0.026c0.049,0.014 0.098,0.027 0.147,0.04c2.881,0.76 5.459,1.173 6.739,1.351c0.027,0.004 0.055,0.006 0.082,0.006c0.156,0 0.308,-0.062 0.42,-0.174l1.108,-1.109c0.132,-0.131 0.194,-0.317 0.168,-0.501c-0.082,-0.597 -0.179,-1.212 -0.288,-1.836c0.251,0.019 0.504,0.03 0.759,0.03c0.203,0 0.405,-0.008 0.606,-0.02c0.209,1.238 0.327,2.168 0.377,2.605l-2.453,2.453c-1.759,-0.206 -11.512,-1.504 -17.884,-5.633c-0.003,-0.002 -0.006,-0.004 -0.009,-0.005c-0.963,-0.602 -1.865,-1.32 -2.681,-2.136c-4.703,-4.703 -5.617,-11.549 -2.126,-15.925c0.204,-0.256 0.162,-0.629 -0.094,-0.834c-0.256,-0.204 -0.629,-0.162 -0.834,0.094c-1.86,2.332 -2.658,5.406 -2.246,8.655c0.409,3.239 1.994,6.382 4.461,8.849c0.878,0.878 1.85,1.652 2.888,2.3c3.786,2.453 8.666,3.912 12.094,4.704c3.166,0.731 5.652,1.038 6.378,1.119l2.501,2.502c-0.057,0.379 0.059,0.78 0.35,1.071l6.94,6.94c0.236,0.236 0.55,0.366 0.884,0.366c0.334,0 0.648,-0.13 0.884,-0.366l2.649,-2.647c0.487,-0.488 0.487,-1.281 0,-1.769Zm-23.373,-13.53l-2.893,-2.893l2.291,-2.291l3.709,3.709c-0.88,0.736 -1.936,1.235 -3.107,1.475Zm-9.138,-2.908l2.276,-2.276l2.291,2.291l-1.867,1.867c-0.958,-0.49 -1.868,-1.122 -2.7,-1.882Zm-2.72,-3.54l1.865,-1.866l2.292,2.291l-2.276,2.276c-0.769,-0.842 -1.397,-1.756 -1.881,-2.701Zm-1.195,-4.926l2.221,2.221l-1.542,1.543c-0.476,-1.254 -0.705,-2.536 -0.679,-3.764Zm1.643,-4.618l3.709,3.709l-2.292,2.291l-2.892,-2.892c0.238,-1.15 0.726,-2.212 1.475,-3.108Zm3.943,-2.317l2.896,2.896l-2.291,2.291l-3.71,-3.709c0.895,-0.75 1.956,-1.239 3.105,-1.478Zm9.146,2.906l-2.281,2.281l-2.291,-2.291l1.87,-1.871c0.946,0.484 1.86,1.112 2.702,1.881Zm-3.12,3.12l-2.291,2.291l-2.292,-2.291l2.292,-2.291l2.291,2.291Zm3.363,7.945l-1.685,-1.685l0.879,-0.878c0.15,0.902 0.424,1.763 0.806,2.563Zm-0.938,-4.11l-1.586,1.586l-2.291,-2.291l2.291,-2.291l1.67,1.67c-0.055,0.418 -0.085,0.844 -0.085,1.276c0,0.017 0.001,0.033 0.001,0.05Zm-5.555,-0.705l-2.291,2.291l-2.292,-2.291l2.292,-2.291l2.291,2.291Zm-1.453,3.13l2.292,-2.291l2.291,2.291l-2.291,2.292l-2.292,-2.292Zm10.388,3.225c-1.363,-1.511 -2.194,-3.51 -2.194,-5.7c0,-2.19 0.831,-4.189 2.194,-5.699c1.414,1.566 2.188,3.567 2.188,5.699c-0.001,2.132 -0.774,4.134 -2.188,5.7Zm-3.008,-8.366l-1.119,-1.119l2.28,-2.28c0.11,0.12 0.218,0.242 0.322,0.365c-0.66,0.906 -1.167,1.93 -1.483,3.034Zm-3.54,-6.636l-1.548,1.548l-2.227,-2.227c1.231,-0.027 2.517,0.202 3.775,0.679Zm-0.467,17.917c-0.888,-0.091 -1.769,-0.304 -2.624,-0.627l1.543,-1.544l2.219,2.22c-0.372,0.007 -0.752,-0.009 -1.138,-0.049Zm11.652,2.767l-0.69,0.69c-1.065,-0.155 -2.793,-0.441 -4.784,-0.904c0.981,-0.496 1.867,-1.139 2.648,-1.92c0.145,-0.145 0.286,-0.296 0.423,-0.449c0.661,0.309 1.363,0.545 2.095,0.699c0.116,0.639 0.219,1.271 0.308,1.884Zm-3.783,-4.858c1.629,-1.788 2.52,-4.081 2.52,-6.524c0,-2.443 -0.891,-4.735 -2.52,-6.523c1.481,-1.244 3.389,-1.994 5.47,-1.994c2.07,0 3.985,0.744 5.474,1.992c-1.631,1.788 -2.522,4.082 -2.522,6.525c0,2.444 0.891,4.737 2.522,6.526c-1.488,1.247 -3.404,1.992 -5.474,1.992c-2.081,0 -3.989,-0.75 -5.47,-1.994Zm7.074,6.823l2.057,2.057l-2.017,2.016l-2.057,-2.056l2.017,-2.017Zm10.241,9.611l-2.647,2.647c-0.025,0.025 -0.066,0.025 -0.091,0l-6.94,-6.94c-0.024,-0.025 -0.024,-0.065 0,-0.09l2.648,-2.648c0.012,-0.012 0.028,-0.018 0.045,-0.018c0.018,0 0.033,0.006 0.045,0.018l6.94,6.94c0.025,0.025 0.025,0.066 0,0.091Z" style="fill:#fff;fill-rule:nonzero;"/></g></svg>