<?xml version="1.0" encoding="UTF-8" standalone="no"?><!DOCTYPE svg PUBLIC "-//W3C//DTD SVG 1.1//EN" "http://www.w3.org/Graphics/SVG/1.1/DTD/svg11.dtd"><svg width="100%" height="100%" viewBox="0 0 41 41" version="1.1" xmlns="http://www.w3.org/2000/svg" xmlns:xlink="http://www.w3.org/1999/xlink" xml:space="preserve" xmlns:serif="http://www.serif.com/" style="fill-rule:evenodd;clip-rule:evenodd;stroke-linejoin:round;stroke-miterlimit:1.41421;"><g><path id="surface1" d="M20.25,40.5c11.184,0 20.25,-9.066 20.25,-20.25c0,-11.184 -9.066,-20.25 -20.25,-20.25c-11.184,0 -20.25,9.066 -20.25,20.25c0,11.184 9.066,20.25 20.25,20.25Zm-15.445,-8.952c0.477,-1.656 3.391,-11.012 8.809,-14.047c1.541,-0.885 3.362,-1.147 5.091,-0.734c-2.755,6.814 -4.667,13.938 -5.693,21.215c-3.276,-1.348 -6.116,-3.575 -8.207,-6.434Zm9.271,6.823c1.011,-7.304 2.923,-14.455 5.693,-21.289c1.62,0.619 2.95,1.819 3.733,3.366c3.149,5.943 0.319,16.723 -0.246,18.72c-3.077,0.49 -6.227,0.219 -9.176,-0.789l-0.004,-0.008Zm10.388,0.554c0.826,-3.028 3.167,-13.033 0,-18.994c-0.895,-1.774 -2.416,-3.153 -4.269,-3.869c1.039,-2.437 2.085,-4.563 3.061,-6.357c6.262,2.426 10.208,6.875 11.676,13.269c0.68,2.985 0.804,6.071 0.367,9.102c-2.719,3.459 -6.545,5.877 -10.835,6.849Zm14.935,-18.675c0.004,3.51 -0.963,6.952 -2.793,9.947c0.166,-2.492 -0.027,-4.995 -0.573,-7.433c-1.101,-4.661 -4.089,-10.82 -12.234,-14.036c0.576,-1.02 1.123,-1.927 1.619,-2.705c1.383,0.426 2.825,0.633 4.272,0.613c1.23,-0.009 2.457,-0.113 3.671,-0.312c3.851,3.608 6.037,8.649 6.038,13.926Zm-11.625,-17.618c1.618,0.695 3.132,1.611 4.501,2.72c-2.434,0.297 -4.522,0.201 -6.24,-0.298c0.822,-1.189 1.42,-2.004 1.739,-2.422Zm-2.804,2.044c-0.499,-0.211 -0.973,-0.474 -1.417,-0.786c-0.987,-0.682 -1.752,-1.639 -2.202,-2.752c1.829,0.107 3.633,0.478 5.355,1.101c-0.367,0.496 -0.991,1.318 -1.736,2.452l0,-0.015Zm-4.797,-3.571c0.47,1.485 1.415,2.775 2.69,3.67c0.472,0.336 0.976,0.624 1.505,0.859c-0.489,0.788 -1.027,1.693 -1.615,2.716c-10.017,-3.457 -16.884,1.16 -19.996,4.126c3.066,-6.884 9.88,-11.333 17.416,-11.371Zm-18.378,14.05c0.763,-1.049 7.811,-10.09 20.422,-5.836c-0.983,1.821 -2.033,3.957 -3.068,6.406c-2.048,-0.539 -4.226,-0.247 -6.06,0.81c-5.212,2.904 -8.137,10.843 -9.081,13.835c-2.835,-4.54 -3.634,-10.061 -2.202,-15.218l-0.011,0.003Z" style="fill:#fff;fill-rule:nonzero;"/></g></svg>