<?xml version="1.0" encoding="UTF-8" standalone="no"?><!DOCTYPE svg PUBLIC "-//W3C//DTD SVG 1.1//EN" "http://www.w3.org/Graphics/SVG/1.1/DTD/svg11.dtd"><svg width="100%" height="100%" viewBox="0 0 50 50" version="1.1" xmlns="http://www.w3.org/2000/svg" xmlns:xlink="http://www.w3.org/1999/xlink" xml:space="preserve" xmlns:serif="http://www.serif.com/" style="fill-rule:evenodd;clip-rule:evenodd;stroke-linejoin:round;stroke-miterlimit:1.41421;"><g><path d="M24.75,49.5c13.628,0 24.75,-11.123 24.75,-24.75c0,-13.628 -11.123,-24.75 -24.75,-24.75c-13.628,0 -24.75,11.123 -24.75,24.75c0,13.628 11.123,24.75 24.75,24.75Zm-15.886,-23.301c0.3,3.311 1.616,6.335 3.633,8.753l-4.181,4.181c-3.071,-3.505 -5.041,-7.999 -5.366,-12.934l5.914,0Zm26.088,-13.702c-2.418,-2.017 -5.441,-3.333 -8.752,-3.633l0,-5.914c4.935,0.325 9.428,2.295 12.933,5.366l-4.181,4.181Zm-11.652,-3.633c-3.311,0.3 -6.334,1.616 -8.752,3.633l-4.181,-4.181c3.505,-3.071 7.998,-5.041 12.933,-5.366l0,5.914Zm1.45,2.834c7.197,0 13.052,5.855 13.052,13.052c0,7.197 -5.855,13.052 -13.052,13.052c-7.197,0 -13.052,-5.855 -13.052,-13.052c0,-7.197 5.855,-13.052 13.052,-13.052Zm-10.202,25.305c2.418,2.017 5.441,3.333 8.752,3.633l0,5.914c-4.935,-0.325 -9.428,-2.295 -12.933,-5.366l4.181,-4.181Zm11.652,3.633c3.311,-0.3 6.334,-1.616 8.752,-3.633l4.181,4.181c-3.505,3.071 -7.998,5.041 -12.933,5.366l0,-5.914Zm14.984,-1.503l-4.181,-4.181c2.017,-2.418 3.333,-5.442 3.633,-8.753l5.914,0c-0.325,4.935 -2.295,9.429 -5.366,12.934Zm5.366,-15.833l-5.914,0c-0.3,-3.311 -1.616,-6.334 -3.633,-8.752l4.181,-4.181c3.071,3.505 5.041,7.998 5.366,12.933Zm-38.234,-12.933l4.181,4.181c-2.017,2.418 -3.333,5.441 -3.633,8.752l-5.914,0c0.325,-4.935 2.295,-9.428 5.366,-12.933Z" style="fill:#fff;fill-rule:nonzero;"/><path d="M24.75,29.101c-0.799,0 -1.45,-0.651 -1.45,-1.451l-2.901,0c0,1.891 1.213,3.503 2.901,4.102l0,3.149l2.9,0l0,-3.149c1.688,-0.599 2.901,-2.211 2.901,-4.102c0,-2.398 -1.952,-4.35 -4.351,-4.35c-0.799,0 -1.45,-0.651 -1.45,-1.45c0,-0.8 0.651,-1.451 1.45,-1.451c0.799,0 1.45,0.651 1.45,1.451l2.901,0c0,-1.891 -1.213,-3.503 -2.901,-4.102l0,-3.149l-2.9,0l0,3.149c-1.688,0.599 -2.901,2.211 -2.901,4.102c0,2.398 1.952,4.35 4.351,4.35c0.799,0 1.45,0.651 1.45,1.45c0,0.8 -0.651,1.451 -1.45,1.451Z" style="fill:#fff;fill-rule:nonzero;"/></g></svg>