<?xml version="1.0" encoding="UTF-8" standalone="no"?><!DOCTYPE svg PUBLIC "-//W3C//DTD SVG 1.1//EN" "http://www.w3.org/Graphics/SVG/1.1/DTD/svg11.dtd"><svg width="100%" height="100%" viewBox="0 0 500 211" version="1.1" xmlns="http://www.w3.org/2000/svg" xmlns:xlink="http://www.w3.org/1999/xlink" xml:space="preserve" xmlns:serif="http://www.serif.com/" style="fill-rule:evenodd;clip-rule:evenodd;stroke-linejoin:round;stroke-miterlimit:1.41421;"><g><circle cx="400.989" cy="111.984" r="98.511" style="fill:#0c2f20;"/><clipPath id="_clip1"><circle cx="400.989" cy="111.984" r="98.511"/></clipPath><g clip-path="url(#_clip1)"><rect x="295.684" y="107.68" width="217.712" height="102.815" style="fill:#84a341;"/></g><circle cx="400.989" cy="111.984" r="62.277" style="fill:#84a341;"/><path d="M321.56,66.125l4.077,6.105l-2.719,6.82l7.067,-1.991l5.645,4.693l0.291,-7.336l6.207,-3.919l-6.886,-2.543l-1.81,-7.115l-4.546,5.764l-7.326,-0.478Z" style="fill:#84a341;"/><path d="M355.131,32.554l0.478,7.326l-5.764,4.547l7.115,1.809l2.543,6.887l3.919,-6.208l7.335,-0.29l-4.692,-5.646l1.99,-7.066l-6.819,2.718l-6.105,-4.077Z" style="fill:#84a341;"/><path d="M400.989,20.267l-3.249,6.583l-7.265,1.056l5.257,5.124l-1.241,7.235l6.498,-3.416l6.498,3.416l-1.241,-7.235l5.257,-5.124l-7.265,-1.056l-3.249,-6.583Z" style="fill:#fff;"/><path d="M446.848,32.554l-6.106,4.077l-6.819,-2.718l1.99,7.066l-4.692,5.646l7.335,0.29l3.92,6.208l2.543,-6.887l7.115,-1.809l-5.764,-4.547l0.478,-7.326Z" style="fill:#84a341;"/><path d="M480.418,66.125l-7.325,0.478l-4.547,-5.764l-1.809,7.115l-6.887,2.543l6.208,3.919l0.29,7.336l5.646,-4.693l7.066,1.991l-2.718,-6.82l4.076,-6.105Z" style="fill:#84a341;"/><g transform="matrix(2.26462,0,0,2.26462,-603.06,-73.2709)"><text x="265.073px" y="104.52px" style="font-family:'Serpentine-BoldOblique';font-size:34px;fill:#fff;">M<tspan x="300.617px " y="104.52px ">y</tspan></text><text x="327.354px" y="104.52px" style="font-family:'Serpentine-BoldOblique';font-size:34px;fill:#7bca2c;">B<tspan x="355.323px 381.428px " y="104.52px 104.52px ">et</tspan></text></g><path d="M400.989,0c16.704,0 30.266,13.562 30.266,30.266c0,16.704 -13.562,30.266 -30.266,30.266c-16.704,0 -30.266,-13.562 -30.266,-30.266c0,-16.704 13.562,-30.266 30.266,-30.266Zm0,8.777c11.86,0 21.489,9.629 21.489,21.489c0,11.86 -9.629,21.489 -21.489,21.489c-11.86,0 -21.489,-9.629 -21.489,-21.489c0,-11.86 9.629,-21.489 21.489,-21.489Z" style="fill:#b0df81;"/><rect x="398.069" y="54.334" width="5.841" height="68.102" style="fill:#b0df81;"/><text x="313.216px" y="163.426px" style="font-family:'Serpentine-BoldOblique';font-size:113.231px;fill:#fff;">2<tspan x="404.359px " y="163.426px ">1</tspan></text></g></svg>